<svg width="17" height="17" viewBox="0 0 17 17" fill="none" xmlns="http://www.w3.org/2000/svg">
<path d="M5.68556 13.3718C5.68556 13.4398 5.60622 13.4965 5.508 13.4965C5.39467 13.5078 5.31533 13.4511 5.31533 13.3718C5.31533 13.3038 5.39467 13.2471 5.49289 13.2471C5.59867 13.2396 5.68556 13.2925 5.68556 13.3718ZM4.62022 13.2169C4.59756 13.2849 4.66556 13.3642 4.76756 13.3831C4.85822 13.4171 4.96022 13.3831 4.97911 13.3151C4.998 13.2471 4.93378 13.1678 4.83178 13.1376C4.74489 13.1149 4.64289 13.1489 4.62022 13.2169ZM6.13511 13.1602C6.03689 13.1829 5.96889 13.2509 5.97644 13.3265C5.98778 13.3945 6.07467 13.4398 6.18044 13.4171C6.27867 13.3945 6.34667 13.3265 6.33911 13.2585C6.32778 13.1942 6.23333 13.1489 6.13511 13.1602ZM8.39044 0.0249023C3.638 0.0249023 0 3.63646 0 8.3889C0 12.1893 2.39133 15.442 5.81022 16.5867C6.24844 16.666 6.40333 16.394 6.40333 16.1711C6.40333 15.9596 6.392 14.7847 6.392 14.0669C6.392 14.0669 3.99311 14.5807 3.49067 13.0469C3.49067 13.0469 3.10156 12.0496 2.53867 11.7927C2.53867 11.7927 1.75289 11.2562 2.59533 11.2638C2.59533 11.2638 3.44911 11.3318 3.91756 12.1478C4.66933 13.47 5.92733 13.0885 6.41467 12.8656C6.494 12.3178 6.71689 11.9362 6.96244 11.7096C5.04711 11.498 3.11289 11.2185 3.11289 7.92046C3.11289 6.97979 3.37356 6.50379 3.92133 5.90312C3.83067 5.68024 3.53978 4.76224 4.012 3.57601C4.72978 3.35312 6.37689 4.50157 6.37689 4.50157C7.06067 4.3089 7.80111 4.21068 8.53022 4.21068C9.25933 4.21068 9.996 4.3089 10.6836 4.50157C10.6836 4.50157 12.3307 3.34935 13.0484 3.57601C13.5169 4.76601 13.226 5.68024 13.1391 5.90312C13.6869 6.51135 14.0231 6.98357 14.0231 7.92046C14.0231 11.2298 12.0058 11.4905 10.0867 11.7096C10.4002 11.9816 10.6684 12.4953 10.6684 13.3C10.6684 14.456 10.6571 15.884 10.6571 16.1636C10.6571 16.3865 10.8158 16.6585 11.2502 16.5791C14.6767 15.442 17 12.1893 17 8.3889C17 3.63646 13.1429 0.0249023 8.39044 0.0249023ZM3.332 11.8456C3.28667 11.8796 3.298 11.9589 3.35467 12.0231C3.41133 12.0798 3.48689 12.1025 3.53222 12.0571C3.57756 12.0231 3.56622 11.9438 3.50956 11.8796C3.45667 11.8267 3.37733 11.804 3.332 11.8456ZM2.96178 11.5698C2.93911 11.6151 2.97311 11.668 3.04111 11.702C3.09778 11.736 3.16578 11.7247 3.18844 11.6793C3.21111 11.634 3.17711 11.5811 3.10911 11.5471C3.04111 11.5245 2.98444 11.5358 2.96178 11.5698ZM4.07244 12.79C4.01578 12.8353 4.03844 12.9373 4.11778 13.0016C4.19711 13.0809 4.29533 13.0922 4.34067 13.0356C4.386 12.9902 4.36333 12.8882 4.29533 12.824C4.21978 12.7447 4.11778 12.7333 4.07244 12.79ZM3.67956 12.2838C3.62289 12.3178 3.62289 12.4085 3.67956 12.4878C3.73622 12.5671 3.82689 12.6011 3.87222 12.5671C3.92889 12.5218 3.92889 12.4349 3.87222 12.3556C3.82311 12.2762 3.73622 12.2422 3.67956 12.2838Z" fill="black"/>
</svg>
