<svg width="16" height="16" viewBox="0 0 16 16" fill="none" xmlns="http://www.w3.org/2000/svg">
<path d="M14.7205 0H1.36702C0.637665 0 0 0.525137 0 1.24616V14.6288C0 15.354 0.637665 16 1.36702 16H14.7163C15.4498 16 16 15.3498 16 14.6288V1.24616C16.0041 0.525137 15.4498 0 14.7205 0ZM4.95962 13.3368H2.66736V6.20995H4.95962V13.3368ZM3.89267 5.12634H3.876C3.14248 5.12634 2.66736 4.58036 2.66736 3.89685C2.66736 3.20083 3.15498 2.66736 3.90518 2.66736C4.65537 2.66736 5.11382 3.19667 5.1305 3.89685C5.1305 4.58036 4.65537 5.12634 3.89267 5.12634ZM13.3368 13.3368H11.0445V9.43996C11.0445 8.50638 10.7111 7.86872 9.88173 7.86872C9.24823 7.86872 8.87313 8.29799 8.70642 8.71477C8.6439 8.86481 8.62723 9.06903 8.62723 9.27742V13.3368H6.33497V6.20995H8.62723V7.20188C8.96065 6.72675 9.48162 6.04324 10.6944 6.04324C12.199 6.04324 13.3368 7.03517 13.3368 9.17322V13.3368Z" fill="black"/>
</svg>
